<svg xmlns="http://www.w3.org/2000/svg">
    <symbol id="logitech"  viewBox="0 0 120 30">
        <g id="logitechg-bottom 1">
            <g id="Vector">
                <path fill-rule="evenodd" clip-rule="evenodd"
                      d="M102.186 0.246094V6.18487C97.4846 6.18487 93.7733 9.85834 93.7733 14.5114C93.7733 19.042 97.4846 22.8379 102.186 22.8379V28.7767C94.2063 28.7767 87.7114 22.4094 87.7114 14.5114C87.7114 6.61344 94.2063 0.246094 102.186 0.246094Z"
                      fill="#4FB7F6"/>
                <path fill-rule="evenodd" clip-rule="evenodd"
                      d="M102.371 11.94V17.7563H109.361V24.6747H115.299V11.94H102.371Z" fill="#4FB7F6"/>
            </g>
            <path id="Shape"
                  d="M24.3094 20.02C22.3919 20.02 20.9074 18.5506 20.9074 16.5914C20.9074 14.6934 22.3919 13.2241 24.3094 13.2241C26.227 13.2241 27.7115 14.6934 27.7115 16.5914C27.7115 18.4894 26.1651 20.02 24.3094 20.02ZM30.495 13.1016V10.7751H26.3507C25.6703 10.469 24.9898 10.4077 24.3094 10.4077C20.7218 10.4077 17.9383 13.1016 17.9383 16.6526C17.9383 20.2036 20.7218 22.8363 24.2476 22.8363C27.7734 22.8363 30.5569 20.1424 30.5569 16.6526C30.5569 15.4281 30.1857 14.3261 29.5672 13.469L30.495 13.1016ZM10.5156 20.02C8.59809 20.02 7.11356 18.5506 7.11356 16.5914C7.11356 14.6934 8.59809 13.2241 10.5156 13.2241C12.4331 13.2241 13.9177 14.6934 13.9177 16.5914C13.9177 18.4894 12.495 20.02 10.5156 20.02ZM10.5156 10.4077C6.92799 10.4077 4.20634 13.1016 4.20634 16.5914C4.20634 20.0812 6.98985 22.8363 10.5156 22.8363C14.0414 22.8363 16.8249 20.1424 16.8249 16.6526C16.8249 13.1628 14.1032 10.4077 10.5156 10.4077ZM0.0620117 22.5302H2.96923V5.87711H0.0620117V22.5302ZM31.794 22.5302H34.7012V10.7751H31.794V22.5302ZM24.3094 26.6322C22.3919 26.6322 20.9074 25.1628 20.9074 23.2649H17.9383C17.9383 26.8159 20.7218 29.4485 24.2476 29.4485C27.7734 29.4485 30.6187 26.7547 30.6187 23.2649H27.7115C27.6496 25.2241 26.1651 26.6322 24.3094 26.6322ZM45.6496 15.4281C46.0826 13.8975 47.196 13.0404 48.7424 13.0404C50.2888 13.0404 51.4641 13.8975 51.7734 15.4281H45.6496ZM48.8661 10.4077C45.2785 10.4077 42.6187 13.1016 42.6187 16.6526C42.6187 20.2036 45.0311 22.7138 48.8661 22.7138C50.9074 22.7138 52.8249 21.9179 54.2476 20.5098L52.2063 18.4894C51.2167 19.469 50.1651 20.02 48.928 20.02C47.2579 20.02 46.0826 19.0404 45.7115 17.6322H54.928V16.9587C54.928 13.1016 52.3919 10.4077 48.8661 10.4077ZM74.9692 10.4077C73.4847 10.4077 72.2476 10.8975 71.3816 11.8771V5.81589H68.4744V22.469H71.3816V16.1016C71.3816 14.3873 72.4332 13.2853 74.227 13.2853C75.8971 13.2853 76.8249 14.3261 76.8249 16.1016V22.469H79.7321V15.6118C79.8558 12.3669 77.7527 10.4077 74.9692 10.4077ZM62.1651 13.2853C63.4022 13.2853 64.3919 13.8975 65.196 14.8159L67.2373 12.7955C66.062 11.3261 64.3301 10.469 62.1651 10.469C58.5775 10.469 55.8558 13.1628 55.8558 16.6526C55.8558 20.1424 58.6393 22.8363 62.1651 22.8363C64.2063 22.8363 66.062 21.8567 67.2373 20.5098L65.196 18.4894C64.3919 19.3465 63.3404 20.02 62.1651 20.02C60.2476 20.02 58.8868 18.5506 58.8868 16.6526C58.763 14.7547 60.3094 13.2853 62.1651 13.2853ZM40.6393 7.16283H37.7321V10.7751H36.1857V13.3465H37.7321V22.469H40.6393V13.3465H42.3094V10.7751H40.6393V7.16283ZM33.3404 5.50977C32.2888 5.50977 31.4228 6.36691 31.4228 7.53017C31.4228 8.57099 32.2888 9.42813 33.3404 9.42813C34.5156 9.42813 35.3816 8.57099 35.3816 7.53017C35.2579 6.36691 34.3919 5.50977 33.3404 5.50977Z"
                  fill="#252A2C"/>
        </g>
    </symbol>
    <symbol id="mouse" viewBox="0 0 24 24">
        <path fill-rule="evenodd" clip-rule="evenodd"
              d="M19 3C20.6569 3 22 1.65685 22 0H20C20 0.552285 19.5523 1 19 1H14C12.3431 1 11 2.34315 11 4C7.68629 4 5 6.68629 5 10V17C5 20.3137 7.68629 23 11 23H13C16.3137 23 19 20.3137 19 17V10C19 6.68629 16.3137 4 13 4C13 3.44772 13.4477 3 14 3H19ZM11 6C8.79086 6 7 7.79086 7 10H11V6ZM7 17V12H17V17C17 19.2091 15.2091 21 13 21H11C8.79086 21 7 19.2091 7 17ZM13 6C15.2091 6 17 7.79086 17 10H13V6Z"
              fill="#252A2C"/>
    </symbol>
    <symbol id="keyboard" viewBox="0 0 24 24">
        <path d="M5 17C5.55228 17 6 16.5523 6 16C6 15.4477 5.55228 15 5 15C4.44772 15 4 15.4477 4 16C4 16.5523 4.44772 17 5 17Z"
              fill="#252A2C"/>
        <path d="M6 10C6 10.5523 5.55228 11 5 11C4.44772 11 4 10.5523 4 10C4 9.44772 4.44772 9 5 9C5.55228 9 6 9.44772 6 10Z"
              fill="#252A2C"/>
        <path d="M9 11C9.55228 11 10 10.5523 10 10C10 9.44772 9.55228 9 9 9C8.44772 9 8 9.44772 8 10C8 10.5523 8.44772 11 9 11Z"
              fill="#252A2C"/>
        <path d="M14 10C14 10.5523 13.5523 11 13 11C12.4477 11 12 10.5523 12 10C12 9.44772 12.4477 9 13 9C13.5523 9 14 9.44772 14 10Z"
              fill="#252A2C"/>
        <path d="M7 14C7.55228 14 8 13.5523 8 13C8 12.4477 7.55228 12 7 12C6.44772 12 6 12.4477 6 13C6 13.5523 6.44772 14 7 14Z"
              fill="#252A2C"/>
        <path d="M12 13C12 13.5523 11.5523 14 11 14C10.4477 14 10 13.5523 10 13C10 12.4477 10.4477 12 11 12C11.5523 12 12 12.4477 12 13Z"
              fill="#252A2C"/>
        <path d="M15 14C15.5523 14 16 13.5523 16 13C16 12.4477 15.5523 12 15 12C14.4477 12 14 12.4477 14 13C14 13.5523 14.4477 14 15 14Z"
              fill="#252A2C"/>
        <path d="M20 16C20 16.5523 19.5523 17 19 17C18.4477 17 18 16.5523 18 16C18 15.4477 18.4477 15 19 15C19.5523 15 20 15.4477 20 16Z"
              fill="#252A2C"/>
        <path d="M17 11C17.5523 11 18 10.5523 18 10C18 9.44772 17.5523 9 17 9C16.4477 9 16 9.44772 16 10C16 10.5523 16.4477 11 17 11Z"
              fill="#252A2C"/>
        <path d="M20 13C20 13.5523 19.5523 14 19 14C18.4477 14 18 13.5523 18 13C18 12.4477 18.4477 12 19 12C19.5523 12 20 12.4477 20 13Z"
              fill="#252A2C"/>
        <path d="M9 15C8.44772 15 8 15.4477 8 16C8 16.5523 8.44772 17 9 17H15C15.5523 17 16 16.5523 16 16C16 15.4477 15.5523 15 15 15H9Z"
              fill="#252A2C"/>
        <path fill-rule="evenodd" clip-rule="evenodd"
              d="M22 0C22 1.65685 20.6569 3 19 3H14C13.4477 3 13 3.44772 13 4V6H20C21.6569 6 23 7.34315 23 9V17C23 18.6569 21.6569 20 20 20H4C2.34315 20 1 18.6569 1 17V9C1 7.34315 2.34315 6 4 6H11V4C11 2.34315 12.3431 1 14 1H19C19.5523 1 20 0.552285 20 0H22ZM4 8C3.44772 8 3 8.44772 3 9V17C3 17.5523 3.44772 18 4 18H20C20.5523 18 21 17.5523 21 17V9C21 8.44772 20.5523 8 20 8H4Z"
              fill="#252A2C"/>
    </symbol>
    <symbol id="webcam" viewBox="0 0 24 24">
        <path fill-rule="evenodd" clip-rule="evenodd"
              d="M3 11C3 6.02944 7.02944 2 12 2C16.9706 2 21 6.02944 21 11C21 14.4608 19.0467 17.4653 16.1823 18.9713L17.5352 21.0005H19C19.5523 21.0005 20 21.4482 20 22.0005C20 22.5528 19.5523 23.0005 19 23.0005H17.0155C17.0058 23.0007 16.996 23.0007 16.9863 23.0005H7.01367C7.00395 23.0007 6.99422 23.0007 6.98449 23.0005H5C4.44772 23.0005 4 22.5528 4 22.0005C4 21.4482 4.44772 21.0005 5 21.0005H6.46478L7.81749 18.9712C4.95327 17.4652 3 14.4607 3 11ZM5.07089 10C5.55612 6.60771 8.47353 4 12 4C15.5265 4 18.4439 6.60771 18.9291 10H14.8293C14.4175 8.83481 13.3062 8 12 8C10.6938 8 9.58254 8.83481 9.17071 10H5.07089ZM18.9291 12C18.4439 15.3923 15.5265 18 12 18C8.47353 18 5.55612 15.3923 5.07089 12H9.17071C9.58254 13.1652 10.6938 14 12 14C13.3062 14 14.4175 13.1652 14.8293 12H18.9291ZM13 11C13 10.4477 12.5523 10 12 10C11.4477 10 11 10.4477 11 11C11 11.5523 11.4477 12 12 12C12.5523 12 13 11.5523 13 11ZM8.86838 21.0005L9.72808 19.7108C10.4538 19.8995 11.2152 20 12 20C12.7847 20 13.546 19.8996 14.2717 19.7108L15.1315 21.0005H8.86838Z"
              fill="#252A2C"/>
    </symbol>
    <symbol id="headsets" viewBox="0 0 24 24">
        <g id="ic-headset">
            <path id="Union" fill-rule="evenodd" clip-rule="evenodd"
                  d="M12.667 2C10.28 2 7.99086 2.94821 6.30303 4.63604C4.6152 6.32387 3.66699 8.61305 3.66699 11V14C3.66699 16.2091 5.45785 18 7.66699 18H8.66699C9.77156 18 10.667 17.1046 10.667 16V11C10.667 9.89543 9.77156 9 8.66699 9H7.66699C7.01005 9 6.3901 9.15837 5.84324 9.43901C6.13452 8.16582 6.77894 6.98856 7.71725 6.05025C9.03 4.7375 10.8105 4 12.667 4C14.5235 4 16.304 4.7375 17.6167 6.05025C18.555 6.98856 19.1995 8.16582 19.4907 9.43901C18.9439 9.15837 18.3239 9 17.667 9H16.667C15.5624 9 14.667 9.89543 14.667 11V16C14.667 17.1046 15.5624 18 16.667 18C16.667 18.0203 16.6676 18.0406 16.6688 18.0608C16.6831 18.2947 16.6046 18.5247 16.4503 18.701C16.3025 18.8699 16.0966 18.9765 15.8741 19H12.667C12.1147 19 11.667 19.4477 11.667 20C11.667 20.5523 12.1147 21 12.667 21H15.917C15.9411 21 15.9652 20.9991 15.9892 20.9974C16.748 20.9424 17.4545 20.5905 17.9554 20.018C18.449 19.4539 18.7038 18.7205 18.667 17.9728V17.874C20.3922 17.4299 21.667 15.8638 21.667 14V11C21.667 8.61305 20.7188 6.32387 19.031 4.63604C17.3431 2.94821 15.0539 2 12.667 2ZM17.667 16C18.7716 16 19.667 15.1046 19.667 14V13C19.667 11.8954 18.7716 11 17.667 11H16.667V16H17.667ZM5.66699 14V13C5.66699 11.8954 6.56242 11 7.66699 11H8.66699V16H7.66699C6.56242 16 5.66699 15.1046 5.66699 14Z"
                  fill="#252A2C"/>
        </g>
    </symbol>
    <symbol id="gamepads" viewBox="0 0 24 24">
        <g id="ic-gamepad">
            <g id="Vector">
                <path fill-rule="evenodd" clip-rule="evenodd"
                      d="M17 10C15.3431 10 14 11.3431 14 13C14 14.6569 15.3431 16 17 16C18.6569 16 20 14.6569 20 13C20 11.3431 18.6569 10 17 10ZM16 13C16 12.4477 16.4477 12 17 12C17.5523 12 18 12.4477 18 13C18 13.5523 17.5523 14 17 14C16.4477 14 16 13.5523 16 13Z"
                      fill="#252A2C"/>
                <path d="M7 10C7.55228 10 8 10.4477 8 11V12H9C9.55228 12 10 12.4477 10 13C10 13.5523 9.55228 14 9 14H8V15C8 15.5523 7.55228 16 7 16C6.44772 16 6 15.5523 6 15V14H5C4.44772 14 4 13.5523 4 13C4 12.4477 4.44772 12 5 12H6V11C6 10.4477 6.44772 10 7 10Z"
                      fill="#252A2C"/>
                <path fill-rule="evenodd" clip-rule="evenodd"
                      d="M19 3C20.6569 3 22 1.65685 22 0H20C20 0.552285 19.5523 1 19 1H14C12.3431 1 11 2.34315 11 4V7H7C3.68629 7 1 9.68629 1 13C1 16.3137 3.68629 19 7 19C8.74755 19 10.3218 18.2516 11.417 17.0608C11.4447 17.0308 11.4704 17.0137 11.4872 17.0056C11.4909 17.0039 11.4938 17.0026 11.4962 17.0018L11.5 17.0005H12.4987C12.5007 17.0009 12.5055 17.0023 12.5133 17.0061C12.5301 17.0142 12.5558 17.0313 12.5835 17.0613C13.6787 18.2518 15.2527 19 17 19C20.3138 19 23 16.3137 23 13C23 9.68629 20.3138 7 17 7H13V4C13 3.44772 13.4477 3 14 3H19ZM7 9C4.79086 9 3 10.7909 3 13C3 15.2091 4.79086 17 7 17C8.16503 17 9.21256 16.5032 9.94497 15.7069C10.31 15.3101 10.855 15 11.4999 15H12.5C13.1448 15 13.6904 15.3105 14.0554 15.7072C14.7878 16.5033 15.8352 17 17 17C19.2092 17 21 15.2091 21 13C21 10.7909 19.2092 9 17 9H7Z"
                      fill="#252A2C"/>
            </g>
        </g>
    </symbol>
    <symbol id="acoustics" viewBox="0 0 24 24">
        <path fill-rule="evenodd" clip-rule="evenodd"
              d="M12.334 5C10.6771 5 9.33398 6.34315 9.33398 8C9.33398 9.65685 10.6771 11 12.334 11C13.9908 11 15.334 9.65685 15.334 8C15.334 6.34315 13.9908 5 12.334 5ZM11.334 8C11.334 7.44772 11.7817 7 12.334 7C12.8863 7 13.334 7.44772 13.334 8C13.334 8.55228 12.8863 9 12.334 9C11.7817 9 11.334 8.55228 11.334 8Z"
              fill="#252A2C"/>
        <path d="M12.334 17C12.8863 17 13.334 16.5523 13.334 16C13.334 15.4477 12.8863 15 12.334 15C11.7817 15 11.334 15.4477 11.334 16C11.334 16.5523 11.7817 17 12.334 17Z"
              fill="#252A2C"/>
        <path fill-rule="evenodd" clip-rule="evenodd"
              d="M8.33398 16C8.33398 13.7909 10.1248 12 12.334 12C14.5431 12 16.334 13.7909 16.334 16C16.334 18.2091 14.5431 20 12.334 20C10.1248 20 8.33398 18.2091 8.33398 16ZM12.334 14C11.2294 14 10.334 14.8954 10.334 16C10.334 17.1046 11.2294 18 12.334 18C13.4386 18 14.334 17.1046 14.334 16C14.334 14.8954 13.4386 14 12.334 14Z"
              fill="#252A2C"/>
        <path fill-rule="evenodd" clip-rule="evenodd"
              d="M7.33398 1C5.67713 1 4.33398 2.34315 4.33398 4V20C4.33398 21.6569 5.67713 23 7.33398 23H17.334C18.9908 23 20.334 21.6569 20.334 20V4C20.334 2.34315 18.9908 1 17.334 1H7.33398ZM6.33398 4C6.33398 3.44772 6.7817 3 7.33398 3H17.334C17.8863 3 18.334 3.44772 18.334 4V20C18.334 20.5523 17.8863 21 17.334 21H7.33398C6.7817 21 6.33398 20.5523 6.33398 20V4Z"
              fill="#252A2C"/>
    </symbol>
</svg>